<?xml version="1.0" standalone="no"?>
<!DOCTYPE svg PUBLIC "-//W3C//DTD SVG 20010904//EN"
 "http://www.w3.org/TR/2001/REC-SVG-20010904/DTD/svg10.dtd">
<svg version="1.0" xmlns="http://www.w3.org/2000/svg"
 width="843.000000pt" height="222.000000pt" viewBox="0 0 843.000000 222.000000"
 preserveAspectRatio="xMidYMid meet">

<g transform="translate(0.000000,222.000000) scale(0.100000,-0.100000)"
fill="#000000" stroke="none">
<path d="M622 1923 c-124 -150 -454 -566 -458 -578 -5 -13 124 -225 136 -224
3 0 79 93 170 207 91 114 243 302 338 419 94 117 172 215 172 218 0 3 -72 5
-159 5 l-160 0 -39 -47z"/>
<path d="M1790 1966 c0 -4 135 -172 522 -649 l160 -198 75 111 74 111 -249
312 -249 312 -167 3 c-91 1 -166 0 -166 -2z"/>
<path d="M742 1513 l-102 -128 0 -302 0 -301 125 -156 c69 -85 129 -157 133
-160 4 -2 5 55 3 126 -1 72 0 159 4 193 l6 63 122 4 c107 3 129 7 180 30 345
161 290 668 -81 747 -29 6 -106 11 -171 11 l-118 0 -101 -127z m365 -153 c86
-52 87 -191 0 -237 -23 -12 -57 -17 -117 -17 l-85 -1 -3 124 c-1 69 0 131 2
138 9 22 164 17 203 -7z"/>
<path d="M1557 1629 c-43 -10 -113 -44 -122 -59 -3 -5 5 -25 19 -43 64 -83
103 -225 91 -329 -7 -64 -36 -157 -59 -190 -25 -36 -19 -45 42 -69 43 -16 85
-23 172 -26 137 -5 163 -14 185 -59 20 -43 7 -93 -32 -124 -24 -19 -40 -20
-279 -20 l-254 0 0 -130 0 -130 273 0 273 0 153 190 153 190 -6 43 c-10 63
-58 156 -102 199 -79 75 -185 108 -347 108 -73 0 -80 2 -108 29 -32 32 -38 71
-17 116 23 51 47 55 303 55 201 0 235 2 228 14 -4 8 -51 66 -103 130 l-95 115
-165 0 c-91 -1 -182 -5 -203 -10z"/>
<path d="M5900 1140 l0 -240 25 0 c19 0 25 5 25 21 l0 20 25 -20 c36 -28 75
-34 120 -19 57 19 85 72 85 161 0 86 -26 142 -75 163 -45 19 -63 18 -108 -5
l-37 -19 0 89 0 89 -30 0 -30 0 0 -240z m195 26 c50 -50 41 -182 -15 -211 -35
-18 -51 -19 -84 -4 -35 16 -49 58 -44 130 4 52 9 66 32 86 35 30 80 30 111 -1z"/>
<path d="M7634 1371 c-2 -2 -4 -42 -4 -88 l0 -83 -25 16 c-14 9 -44 17 -66 17
-78 0 -129 -65 -129 -166 0 -108 45 -167 129 -167 26 0 56 7 67 15 25 19 34
19 34 0 0 -9 9 -15 25 -15 l25 0 0 240 0 240 -26 -2 c-14 -2 -27 -4 -30 -7z
m-30 -202 c24 -19 26 -26 26 -104 0 -78 -2 -85 -26 -104 -34 -27 -66 -27 -99
2 -61 52 -49 190 18 217 35 14 52 12 81 -11z"/>
<path d="M6545 1351 c-91 -23 -130 -101 -88 -172 18 -30 70 -59 166 -94 82
-29 100 -98 34 -131 -61 -32 -167 5 -167 58 0 14 -8 18 -31 18 -30 0 -31 -1
-25 -32 13 -66 71 -102 166 -102 101 0 155 42 153 120 -2 53 -28 83 -101 115
-150 67 -163 78 -146 126 7 20 21 32 51 42 56 20 112 0 132 -47 12 -26 19 -31
40 -28 27 4 28 11 9 58 -20 53 -119 88 -193 69z"/>
<path d="M7802 1348 c-26 -26 1 -65 38 -53 32 10 20 65 -15 65 -6 0 -16 -5
-23 -12z"/>
<path d="M2961 1125 l-3 -225 33 0 34 0 0 87 0 88 90 5 c97 6 122 15 154 56
29 37 29 121 0 158 -37 47 -68 56 -191 56 l-113 0 -4 -225z m236 159 c22 -17
29 -30 31 -66 3 -40 -1 -49 -24 -67 -22 -17 -40 -21 -105 -21 l-79 0 0 83 c0
46 2 86 6 89 3 3 36 5 74 4 53 -1 75 -6 97 -22z"/>
<path d="M4050 1125 l0 -225 30 0 30 0 0 225 0 225 -30 0 -30 0 0 -225z"/>
<path d="M4960 1343 c1 -5 25 -105 54 -223 l53 -215 29 0 29 0 49 172 c28 95
51 171 53 169 2 -1 21 -65 43 -142 63 -216 58 -204 89 -204 27 0 27 1 74 203
26 111 50 212 53 225 6 19 3 22 -24 22 -29 0 -30 -1 -51 -92 -12 -51 -28 -129
-36 -172 -9 -44 -17 -82 -20 -84 -6 -6 -6 -4 -50 158 -53 195 -48 185 -78 188
-22 3 -27 -2 -37 -35 -5 -21 -28 -101 -49 -178 -22 -77 -42 -133 -45 -125 -3
8 -13 49 -21 90 -9 41 -25 114 -36 163 -20 85 -21 87 -50 87 -16 0 -29 -3 -29
-7z"/>
<path d="M4600 1275 c0 -43 -1 -45 -30 -45 -23 0 -30 -4 -30 -20 0 -15 7 -20
29 -20 l29 0 3 -124 c5 -148 15 -169 83 -164 33 2 41 7 41 23 0 11 -6 19 -13
17 -7 -1 -22 2 -32 8 -18 10 -20 22 -20 125 l0 115 30 0 c23 0 30 4 30 20 0
16 -7 20 -30 20 -29 0 -30 2 -30 45 0 43 -1 45 -30 45 -29 0 -30 -2 -30 -45z"/>
<path d="M6860 1275 c0 -43 -1 -45 -30 -45 -23 0 -30 -4 -30 -20 0 -16 7 -20
30 -20 l30 0 0 -116 c0 -149 11 -174 83 -174 33 0 37 3 37 25 0 18 -4 23 -15
19 -36 -14 -45 14 -45 132 l0 114 30 0 c23 0 30 4 30 20 0 16 -7 20 -30 20
-29 0 -30 2 -30 45 0 43 -1 45 -30 45 -29 0 -30 -2 -30 -45z"/>
<path d="M3423 1229 c-41 -12 -63 -44 -63 -90 0 -46 21 -65 100 -89 73 -22 90
-35 90 -66 0 -28 -26 -44 -74 -44 -35 0 -76 27 -76 50 0 6 -13 10 -30 10 -35
0 -35 -1 -15 -40 20 -40 63 -60 125 -60 83 0 130 35 130 95 0 38 -40 71 -106
91 -88 25 -113 54 -78 89 11 11 30 15 58 13 33 -2 43 -8 53 -29 10 -21 18 -25
42 -21 32 4 33 20 2 56 -34 40 -94 53 -158 35z"/>
<path d="M3764 1221 c-105 -48 -114 -246 -15 -304 39 -23 118 -24 159 -3 38
20 47 33 32 50 -9 12 -17 10 -49 -7 -65 -36 -134 -4 -156 71 -6 22 -6 22 109
22 l116 0 0 38 c0 109 -101 178 -196 133z m115 -57 c12 -15 21 -37 21 -50 0
-23 -3 -24 -80 -24 -86 0 -94 6 -68 53 28 54 93 64 127 21z"/>
<path d="M4346 1230 c-15 -5 -36 -16 -46 -25 -16 -15 -18 -14 -23 5 -3 14 -13
20 -31 20 l-26 0 0 -165 0 -165 30 0 30 0 0 124 c0 123 0 125 26 145 34 27 78
27 104 1 18 -18 20 -33 20 -145 l0 -125 31 0 31 0 -4 140 c-3 134 -4 141 -28
164 -29 28 -73 38 -114 26z"/>
<path d="M5635 1226 c-61 -27 -95 -85 -95 -161 0 -119 86 -191 194 -164 56 14
85 42 66 64 -12 14 -15 14 -30 0 -44 -39 -129 -25 -155 26 -30 56 -26 59 95
59 l110 0 0 40 c0 62 -31 114 -80 134 -48 19 -65 20 -105 2z m92 -51 c22 -15
46 -69 36 -79 -4 -3 -42 -6 -85 -6 -72 0 -78 2 -78 21 0 28 53 79 82 79 13 0
33 -7 45 -15z"/>
<path d="M8045 1230 c-87 -27 -130 -150 -86 -245 23 -51 46 -70 96 -84 114
-30 207 63 192 190 -6 52 -40 109 -76 129 -29 15 -93 20 -126 10z m100 -56
c64 -42 57 -192 -11 -223 -31 -14 -47 -14 -78 0 -69 32 -73 176 -7 226 22 17
67 16 96 -3z"/>
<path d="M7060 1100 c0 -139 8 -170 47 -191 33 -18 97 -16 127 5 31 20 36 20
36 1 0 -9 9 -15 25 -15 l25 0 0 165 0 165 -25 0 -25 0 0 -120 c0 -106 -2 -122
-20 -140 -43 -43 -111 -35 -130 16 -6 14 -10 75 -10 135 l0 109 -25 0 -25 0 0
-130z"/>
<path d="M7800 1066 l0 -166 31 0 31 0 -5 163 -5 162 -26 3 -26 3 0 -165z"/>
<path d="M264 993 c-15 -27 -45 -75 -67 -107 -36 -54 -39 -61 -26 -81 8 -12
119 -153 248 -313 l235 -292 163 0 c129 0 163 3 157 12 -5 7 -78 99 -163 203
-86 105 -234 288 -329 408 -96 119 -178 217 -182 217 -4 0 -21 -21 -36 -47z"/>
<path d="M2275 802 c-168 -210 -432 -536 -473 -584 -14 -17 -6 -18 151 -18
l166 0 237 298 c130 163 243 304 250 312 11 14 3 31 -56 120 -39 58 -73 106
-77 107 -5 2 -93 -104 -198 -235z"/>
</g>
</svg>
