<svg xmlns="http://www.w3.org/2000/svg" version="1.0" width="1080.000000pt" height="269.000000pt" viewBox="0 0 1080.000000 269.000000" preserveAspectRatio="xMidYMid meet">
<metadata fill="#eef9ff">
Created by potrace 1.16, written by Peter Selinger 2001-2019
</metadata>
<g transform="translate(0.000000,269.000000) scale(0.100000,-0.100000)" fill="#eef9ff" stroke="none">
<path d="M743 2343 c-86 -109 -209 -263 -273 -343 -64 -80 -146 -183 -183 -228 -37 -46 -67 -90 -67 -97 0 -10 104 -175 160 -255 6 -8 15 -22 20 -30 6 -10 12 -11 18 -5 5 6 152 190 328 410 175 220 326 409 335 420 67 79 259 316 259 320 0 3 -99 5 -220 5 l-220 0 -157 -197z" fill="#eef9ff"/>
<path d="M2450 2535 c0 -5 228 -294 241 -305 3 -3 96 -117 206 -255 396 -493 468 -580 480 -580 13 0 193 266 193 285 0 6 -123 165 -273 353 -150 188 -302 379 -337 424 l-65 83 -222 0 c-123 0 -223 -2 -223 -5z" fill="#eef9ff"/>
<path d="M1084 2003 c-38 -49 -94 -119 -123 -158 -30 -38 -63 -79 -73 -89 -17 -18 -18 -48 -18 -427 l0 -407 107 -133 c113 -141 124 -155 161 -197 12 -15 37 -46 55 -69 18 -23 35 -43 39 -43 4 0 7 115 8 256 0 141 3 261 6 265 3 5 67 9 144 9 206 0 309 37 425 154 104 105 157 232 157 376 1 276 -171 484 -441 534 -51 10 -139 16 -230 16 l-147 0 -70 -87z m423 -292 c50 -29 78 -64 92 -119 22 -82 -8 -161 -79 -208 -37 -25 -50 -27 -158 -30 -82 -2 -119 1 -124 9 -14 21 -10 351 5 366 9 9 41 12 117 9 88 -3 112 -7 147 -27z" fill="#eef9ff"/>
<path d="M2138 2074 c-53 -12 -147 -53 -175 -76 -9 -7 -3 -21 22 -53 41 -55 86 -150 110 -235 27 -95 25 -253 -4 -345 -25 -81 -56 -151 -71 -160 -21 -13 -9 -41 28 -58 73 -35 148 -48 309 -55 141 -6 164 -10 183 -27 77 -70 62 -192 -30 -237 -31 -15 -75 -17 -367 -18 l-333 0 0 -175 0 -175 369 0 369 0 115 143 c63 78 157 193 207 256 l93 113 -7 66 c-14 135 -116 282 -243 349 -87 47 -123 54 -298 62 -100 5 -169 12 -185 21 -33 17 -59 48 -67 77 -9 39 3 112 23 134 41 46 54 47 384 50 173 1 321 4 328 7 14 5 9 11 -167 225 l-105 127 -216 -1 c-147 0 -233 -5 -272 -15z" fill="#eef9ff"/>
<path d="M6630 1670 l0 -129 -32 18 c-82 47 -164 34 -227 -34 -49 -53 -71 -123 -71 -225 0 -171 68 -270 184 -270 55 0 93 14 128 47 l26 25 7 -31 c7 -31 7 -31 71 -31 l64 0 0 370 0 369 -32 5 c-18 3 -52 7 -75 11 l-43 5 0 -130z m-26 -211 c26 -20 26 -23 26 -142 0 -118 -1 -122 -27 -149 -32 -34 -90 -39 -116 -10 -39 43 -46 206 -12 272 27 53 82 66 129 29z" fill="#eef9ff"/>
<path d="M9040 1671 l0 -128 -47 23 c-52 27 -71 29 -126 13 -90 -25 -146 -114 -154 -244 -9 -137 34 -252 107 -290 34 -18 122 -20 153 -4 12 6 34 23 49 37 l28 26 6 -32 c6 -32 7 -32 70 -32 l64 0 0 370 0 370 -22 4 c-13 3 -47 7 -75 10 l-53 5 0 -128z m-26 -212 c26 -20 26 -22 26 -145 0 -122 -1 -125 -26 -149 -47 -43 -113 -30 -133 26 -17 48 -14 195 5 234 26 55 82 70 128 34z" fill="#eef9ff"/>
<path d="M3900 1386 l0 -346 80 0 79 0 3 118 3 117 95 6 c182 11 257 87 248 249 -3 59 -8 74 -34 107 -17 21 -53 49 -80 63 -45 23 -60 25 -221 28 l-173 4 0 -346z m301 219 c33 -18 49 -50 49 -100 0 -79 -43 -115 -135 -115 l-55 0 0 115 0 115 55 0 c31 0 69 -7 86 -15z" fill="#eef9ff"/>
<path d="M4677 1580 c-51 -13 -87 -33 -117 -65 -21 -23 -25 -36 -25 -92 0 -62 2 -66 37 -98 26 -24 62 -42 122 -60 104 -32 132 -51 123 -88 -14 -52 -110 -60 -203 -14 l-46 22 -34 -38 c-19 -21 -32 -42 -29 -47 4 -6 30 -22 58 -37 41 -21 70 -27 137 -31 94 -5 150 7 200 40 50 35 73 71 74 120 2 94 -41 136 -179 177 -82 24 -115 45 -115 71 0 43 103 54 179 20 24 -11 44 -20 46 -20 5 0 55 76 55 84 0 4 -24 18 -53 31 -60 28 -171 40 -230 25z" fill="#eef9ff"/>
<path d="M5267 1574 c-65 -20 -129 -85 -152 -153 -22 -67 -18 -199 9 -253 26 -54 82 -105 135 -123 64 -22 169 -19 235 5 78 30 85 41 51 90 l-27 39 -42 -21 c-51 -26 -134 -28 -171 -4 -24 16 -55 70 -55 95 0 7 65 12 173 13 l172 3 -2 70 c-3 109 -45 185 -124 226 -53 27 -142 33 -202 13z m127 -95 c28 -13 56 -64 56 -103 l0 -26 -100 0 c-112 0 -116 3 -86 74 24 59 75 80 130 55z" fill="#eef9ff"/>
<path d="M7080 1576 c-66 -17 -115 -59 -147 -124 -24 -50 -28 -69 -28 -147 1 -133 44 -212 140 -256 81 -38 225 -18 288 39 66 59 95 214 63 326 -23 77 -82 138 -155 160 -64 19 -99 19 -161 2z m120 -111 c45 -23 67 -119 50 -219 -13 -80 -39 -108 -99 -104 -65 4 -85 36 -90 140 -4 96 10 149 46 177 31 25 54 26 93 6z" fill="#eef9ff"/>
<path d="M7713 1572 c-74 -27 -118 -64 -150 -129 -24 -50 -28 -69 -28 -143 1 -72 5 -93 28 -138 50 -95 136 -138 262 -130 66 5 144 33 160 58 3 5 -8 30 -25 54 l-30 45 -36 -21 c-45 -26 -112 -28 -149 -4 -41 27 -58 79 -53 161 5 77 23 115 64 133 34 16 104 14 134 -3 14 -8 30 -14 36 -15 16 0 66 79 58 91 -13 22 -94 50 -156 55 -46 3 -77 0 -115 -14z" fill="#eef9ff"/>
<path d="M8272 1572 c-61 -22 -104 -60 -135 -117 -19 -34 -22 -56 -22 -150 0 -95 3 -116 22 -152 44 -81 120 -123 224 -123 86 0 129 17 180 69 53 55 74 114 74 211 -1 119 -57 221 -142 256 -58 25 -142 27 -201 6z m141 -112 c32 -25 47 -75 47 -155 0 -118 -29 -165 -101 -165 -29 0 -43 7 -62 30 -43 50 -48 190 -11 263 25 48 84 60 127 27z" fill="#eef9ff"/>
<path d="M9500 1577 c-63 -18 -112 -57 -146 -119 -27 -49 -29 -61 -29 -153 0 -83 4 -107 22 -140 48 -89 128 -134 238 -135 81 0 125 11 178 43 l37 23 -30 41 -30 41 -40 -20 c-50 -25 -124 -27 -166 -5 -26 13 -64 74 -64 102 0 3 79 5 175 5 l175 0 0 53 c0 113 -49 206 -131 247 -49 26 -133 33 -189 17z m114 -97 c30 -11 56 -57 56 -100 l0 -30 -101 0 -101 0 7 38 c15 83 69 119 139 92z" fill="#eef9ff"/>
<path d="M5722 1348 c3 -210 4 -225 25 -259 28 -44 59 -59 124 -59 55 0 103 17 136 49 28 27 31 27 35 -6 3 -27 5 -28 71 -31 l67 -3 0 266 0 265 -75 0 -75 0 0 -186 0 -186 -29 -29 c-21 -21 -39 -29 -65 -29 -61 0 -66 17 -66 237 l0 193 -76 0 -75 0 3 -222z" fill="#eef9ff"/>
<path d="M9926 1558 c4 -7 41 -64 81 -125 l72 -113 -82 -127 c-46 -71 -87 -134 -91 -140 -5 -10 12 -13 73 -13 l81 0 50 100 c28 55 52 100 55 100 2 0 28 -45 57 -100 l53 -100 83 0 c45 0 82 2 82 5 0 2 -39 66 -87 142 -49 75 -87 140 -86 144 2 4 34 57 73 118 38 61 70 113 70 116 0 3 -34 5 -75 5 l-75 0 -44 -87 -44 -88 -43 88 -43 87 -84 0 c-64 0 -81 -3 -76 -12z" fill="#eef9ff"/>
<path d="M376 1222 c-17 -26 -58 -91 -93 -145 -35 -53 -63 -102 -63 -107 0 -5 19 -33 43 -62 139 -171 272 -338 422 -527 93 -118 179 -225 191 -238 22 -23 22 -23 243 -21 l221 3 -98 119 c-53 66 -145 178 -204 250 -59 72 -223 276 -364 454 -140 177 -259 322 -262 322 -4 0 -20 -21 -36 -48z" fill="#eef9ff"/>
<path d="M3211 1068 c-236 -298 -689 -860 -749 -930 -14 -17 -3 -18 209 -18 l224 0 195 246 c107 136 205 258 217 273 75 90 256 318 260 328 3 6 -24 56 -59 110 -36 54 -77 119 -92 146 -15 26 -31 47 -36 47 -4 0 -80 -91 -169 -202z" fill="#eef9ff"/>
</g>
</svg>